<?xml version="1.0" standalone="yes"?>

<svg version="1.1" viewBox="0.0 0.0 960.0 720.0" fill="none" stroke="none" stroke-linecap="square" stroke-miterlimit="10" xmlns="http://www.w3.org/2000/svg" xmlns:xlink="http://www.w3.org/1999/xlink"><clipPath id="p.0"><path d="m0 0l960.0 0l0 720.0l-960.0 0l0 -720.0z" clip-rule="nonzero"></path></clipPath><g clip-path="url(#p.0)"><path fill="#000000" fill-opacity="0.0" d="m0 0l960.0 0l0 720.0l-960.0 0z" fill-rule="evenodd"></path><path fill="#cfe2f3" d="m1.4435695 4.328084l958.5512 0l0 715.68506l-958.5512 0z" fill-rule="evenodd"></path><path stroke="#000000" stroke-width="1.0" stroke-linejoin="round" stroke-linecap="butt" d="m1.4435695 4.328084l958.5512 0l0 715.68506l-958.5512 0z" fill-rule="evenodd"></path><path fill="#000000" d="m406.40945 353.51443l0 0c0 -39.0513 32.9476 -70.70865 73.590546 -70.70865l0 0c19.517426 0 38.235474 7.4496155 52.036377 20.710083c13.800903 13.260437 21.5542 31.245453 21.5542 49.998566l0 0c0 39.05133 -32.94763 70.70865 -73.590576 70.70865l0 0c-40.642944 0 -73.590546 -31.657318 -73.590546 -70.70865z" fill-rule="evenodd"></path><path stroke="#000000" stroke-width="1.0" stroke-linejoin="round" stroke-linecap="butt" d="m406.40945 353.51443l0 0c0 -39.0513 32.9476 -70.70865 73.590546 -70.70865l0 0c19.517426 0 38.235474 7.4496155 52.036377 20.710083c13.800903 13.260437 21.5542 31.245453 21.5542 49.998566l0 0c0 39.05133 -32.94763 70.70865 -73.590576 70.70865l0 0c-40.642944 0 -73.590546 -31.657318 -73.590546 -70.70865z" fill-rule="evenodd"></path></g></svg>

