<?xml version="1.0" standalone="yes"?>

<svg version="1.1" viewBox="0.0 0.0 960.0 720.0" fill="none" stroke="none" stroke-linecap="square" stroke-miterlimit="10" xmlns="http://www.w3.org/2000/svg" xmlns:xlink="http://www.w3.org/1999/xlink"><clipPath id="p.0"><path d="m0 0l960.0 0l0 720.0l-960.0 0l0 -720.0z" clip-rule="nonzero"></path></clipPath><g clip-path="url(#p.0)"><path fill="#000000" fill-opacity="0.0" d="m0 0l960.0 0l0 720.0l-960.0 0z" fill-rule="evenodd"></path><path fill="#cfe2f3" d="m477.59842 87.344536l0 0c45.732086 0 82.80521 37.07316 82.80521 82.805214c0 45.732056 -37.07312 82.80522 -82.80521 82.80522c-45.732056 0 -82.80521 -37.073166 -82.80521 -82.80522c0 -45.732056 37.07315 -82.805214 82.80521 -82.805214zm0 538.0931c-45.732056 0 -82.80521 -37.07318 -82.80521 -82.80524c0 -45.732056 37.07315 -82.80521 82.80521 -82.80521c45.732086 0 82.80521 37.07315 82.80521 82.80521c0 45.732056 -37.07312 82.80524 -82.80521 82.80524zm-346.74548 -351.85178l693.49097 0l0 165.61044l-693.49097 0z" fill-rule="evenodd"></path><path stroke="#000000" stroke-width="1.0" stroke-linejoin="round" stroke-linecap="butt" d="m477.59842 87.344536l0 0c45.732086 0 82.80521 37.07316 82.80521 82.805214c0 45.732056 -37.07312 82.80522 -82.80521 82.80522c-45.732056 0 -82.80521 -37.073166 -82.80521 -82.80522c0 -45.732056 37.07315 -82.805214 82.80521 -82.805214zm0 538.0931c-45.732056 0 -82.80521 -37.07318 -82.80521 -82.80524c0 -45.732056 37.07315 -82.80521 82.80521 -82.80521c45.732086 0 82.80521 37.07315 82.80521 82.80521c0 45.732056 -37.07312 82.80524 -82.80521 82.80524zm-346.74548 -351.85178l693.49097 0l0 165.61044l-693.49097 0z" fill-rule="evenodd"></path></g></svg>

