<?xml version="1.0" standalone="yes"?>

<svg version="1.1" viewBox="0.0 0.0 960.0 720.0" fill="none" stroke="none" stroke-linecap="square" stroke-miterlimit="10" xmlns="http://www.w3.org/2000/svg" xmlns:xlink="http://www.w3.org/1999/xlink"><clipPath id="p.0"><path d="m0 0l960.0 0l0 720.0l-960.0 0l0 -720.0z" clip-rule="nonzero"></path></clipPath><g clip-path="url(#p.0)"><path fill="#000000" fill-opacity="0.0" d="m0 0l960.0 0l0 720.0l-960.0 0z" fill-rule="nonzero"></path><path fill="#76a5af" d="m5.7611547 233.76115l0 0c0 -24.123688 209.20818 -43.679794 467.2795 -43.679794c258.07138 0 467.2795 19.556107 467.2795 43.679794l0 174.71916c0 24.123688 -209.20813 43.67978 -467.2795 43.67978c-258.07135 0 -467.2795 -19.556091 -467.2795 -43.67978z" fill-rule="nonzero"></path><path fill="#000000" fill-opacity="0.0" d="m940.3202 233.76115l0 0c0 24.123672 -209.20813 43.679794 -467.2795 43.679794c-258.07135 0 -467.2795 -19.556122 -467.2795 -43.679794" fill-rule="nonzero"></path><path fill="#000000" fill-opacity="0.0" d="m5.7611547 233.76115l0 0c0 -24.123688 209.20818 -43.679794 467.2795 -43.679794c258.07138 0 467.2795 19.556107 467.2795 43.679794l0 174.71916c0 24.123688 -209.20813 43.67978 -467.2795 43.67978c-258.07135 0 -467.2795 -19.556091 -467.2795 -43.67978z" fill-rule="nonzero"></path><path stroke="#434343" stroke-width="1.0" stroke-linejoin="round" stroke-linecap="butt" d="m940.3202 233.76115l0 0c0 24.123672 -209.20813 43.679794 -467.2795 43.679794c-258.07135 0 -467.2795 -19.556122 -467.2795 -43.679794" fill-rule="nonzero"></path><path stroke="#434343" stroke-width="1.0" stroke-linejoin="round" stroke-linecap="butt" d="m5.7611547 233.76115l0 0c0 -24.123688 209.20818 -43.679794 467.2795 -43.679794c258.07138 0 467.2795 19.556107 467.2795 43.679794l0 174.71916c0 24.123688 -209.20813 43.67978 -467.2795 43.67978c-258.07135 0 -467.2795 -19.556091 -467.2795 -43.67978z" fill-rule="nonzero"></path><path fill="#666666" d="m65.49449 306.09714c12.72673 0 22.219246 3.2567139 28.477554 9.770172c6.273323 6.498413 9.409973 15.600739 9.409973 27.306915c0 11.706207 -3.13665 20.81601 -9.409973 27.329468c-6.2583084 6.498413 -15.750824 9.74765 -28.477554 9.74765c-3.7820015 0 -6.7085457 -0.045013428 -8.779644 -0.1350708c-2.0710945 -0.105041504 -3.526863 -0.2026062 -4.3673058 -0.29266357l0 -73.29874c0.84044266 -0.09005737 2.2962112 -0.18011475 4.3673058 -0.2701416c2.0710983 -0.10507202 4.9976425 -0.15759277 8.779644 -0.15759277zm-1.1030807 -11.751221c-3.8720512 0 -8.141808 0.1651001 -12.809277 0.49526978c-4.652458 0.31515503 -8.86969 0.9379883 -12.651688 1.8684692l0 92.92914c3.7819977 0.9305115 7.9992294 1.5533447 12.651688 1.8684998c4.667469 0.33016968 8.937225 0.49526978 12.809277 0.49526978c7.834137 0 15.022942 -0.99053955 21.566399 -2.9715881c6.558464 -1.9810486 12.1864395 -4.975128 16.883926 -8.982239c4.697487 -4.0221252 8.336914 -9.094818 10.918274 -15.218048c2.5813675 -6.1382446 3.8720474 -13.357056 3.8720474 -21.656464c0 -8.299377 -1.2906799 -15.510681 -3.8720474 -21.633942c-2.5813675 -6.1382446 -6.2207947 -11.210907 -10.918274 -15.218018c-4.697487 -4.0221252 -10.325462 -7.023712 -16.883926 -9.004761c-6.543457 -1.9810486 -13.732262 -2.9715881 -21.566399 -2.9715881z" fill-rule="evenodd"></path><path fill="#666666" d="m143.08559 289.3708c-2.2962189 0 -4.2547455 0.7654114 -5.8756104 2.2962036c-1.6058502 1.5158081 -2.4087677 3.564392 -2.4087677 6.145752c0 2.5813599 0.8029175 4.637451 2.4087677 6.168274c1.6208649 1.5158081 3.5793915 2.2737122 5.8756104 2.2737122c2.3112183 0 4.26976 -0.75790405 5.8756104 -2.2737122c1.6208496 -1.5308228 2.4312897 -3.586914 2.4312897 -6.168274c0 -2.5813599 -0.81044006 -4.629944 -2.4312897 -6.145752c-1.6058502 -1.5307922 -3.564392 -2.2962036 -5.8756104 -2.2962036zm-6.348358 29.873291l0 71.92554l12.854294 0l0 -71.92554z" fill-rule="evenodd"></path><path fill="#666666" d="m198.00183 357.8295c2.9415588 0 5.447891 0.16506958 7.518982 0.49523926c2.08609 0.31518555 3.5868835 0.7053833 4.5023804 1.1706238l0 21.431335c-1.5608368 0.3751831 -3.5193634 0.6303406 -5.8756104 0.7654114c-2.3412323 0.1350708 -5.0351562 0.2026062 -8.081772 0.2026062c-5.072693 0 -9.087311 -0.89297485 -12.043869 -2.6789246c-2.9415436 -1.8009644 -4.4123383 -5.0051575 -4.4123383 -9.612579c0 -2.4913025 0.5928192 -4.494873 1.7784424 -6.010681c1.2006378 -1.5307922 2.7014313 -2.7314453 4.5023804 -3.6018982c1.8009491 -0.8854675 3.7819977 -1.4632874 5.9431458 -1.733429c2.1761475 -0.28512573 4.232239 -0.42770386 6.1682587 -0.42770386zm-3.0391083 -40.386353c-4.5173798 0 -8.712097 0.3451538 -12.584152 1.0355225c-3.8720398 0.69036865 -6.6410065 1.4107666 -8.306885 2.1611633l1.5308075 10.648132c1.5608215 -0.6453552 3.9320831 -1.2681885 7.1137543 -1.8684998c3.1816864 -0.6003113 6.8961487 -0.9004822 11.143402 -0.9004822c3.3167572 0 6.010666 0.48776245 8.081772 1.4632874c2.0710907 0.96051025 3.706955 2.2511902 4.907593 3.8720398c1.2006378 1.605835 2.026062 3.444336 2.476303 5.5154114c0.46524048 2.071106 0.697876 4.1722107 0.697876 6.3033447l0 3.5793762c-0.36019897 -0.090026855 -1.0055237 -0.22509766 -1.9360199 -0.4052124c-0.91548157 -0.18008423 -1.9960632 -0.38269043 -3.2417145 -0.6078186c-1.2456665 -0.2401123 -2.5588684 -0.42773438 -3.9395905 -0.5628052c-1.3807373 -0.15005493 -2.716446 -0.22509766 -4.0071106 -0.22509766c-4.067154 0 -7.946701 0.42022705 -11.638657 1.2606506c-3.6769562 0.82543945 -6.903656 2.1161194 -9.680115 3.8720398c-2.7614594 1.7559509 -4.9526215 4.059662 -6.5734863 6.9111633c-1.6058502 2.8515015 -2.4087677 6.265808 -2.4087677 10.24292c0 4.1421814 0.6903534 7.691559 2.0710907 10.648132c1.3957367 2.9415588 3.3317566 5.312805 5.808075 7.1137695c2.4913177 1.8009338 5.4403687 3.1141357 8.847183 3.9395752c3.4217987 0.8404541 7.158783 1.2606506 11.210922 1.2606506c2.866516 0 5.748047 -0.12005615 8.644562 -0.36016846c2.9115448 -0.22512817 5.612976 -0.48025513 8.104294 -0.7654114c2.4913177 -0.2701416 4.7274933 -0.5628052 6.708542 -0.8779602c1.9810486 -0.33016968 3.5268707 -0.58532715 4.637451 -0.7654114l0 -44.95627c0 -4.0521545 -0.46525574 -7.759094 -1.3957367 -11.12088c-0.9154968 -3.3768005 -2.461319 -6.28833 -4.637451 -8.734619c-2.161148 -2.446289 -5.020157 -4.3372803 -8.577026 -5.673004c-3.5418854 -1.3356934 -7.8941956 -2.00354 -13.056915 -2.00354z" fill-rule="evenodd"></path><path fill="#666666" d="m272.40744 317.73578c-6.363373 0 -11.968842 0.41271973 -16.816406 1.2381592c-4.83255 0.82543945 -8.71962 1.6058655 -11.661163 2.3412476l0 69.85443l12.854309 0l0 -60.7146c0.36016846 -0.09005737 1.095581 -0.22512817 2.2061462 -0.4052124c1.1105957 -0.19509888 2.3337402 -0.36019897 3.669464 -0.49526978c1.3356934 -0.1350708 2.738922 -0.24761963 4.209717 -0.337677c1.4857788 -0.10507202 2.8740234 -0.15759277 4.1647034 -0.15759277c3.0316162 0 5.5379333 0.48776245 7.518982 1.4632874c1.9960632 0.96051025 3.564392 2.4613037 4.7049866 4.5023804c1.1555786 2.026062 1.9660339 4.5624084 2.4312744 7.609009c0.46524048 3.0316162 0.697876 6.671051 0.697876 10.918274l0 37.6174l12.854279 0l0 -40.386353c0 -3.1366577 -0.18759155 -6.1307373 -0.56277466 -8.982239c-0.36019897 -2.866516 -0.9079895 -5.5004272 -1.6433716 -7.901703c1.0055237 -0.9154663 2.9115295 -1.9510193 5.7180176 -3.1066284c2.8214722 -1.1556091 6.400879 -1.733429 10.738159 -1.733429c3.1366577 0 5.695526 0.48776245 7.6765747 1.4632874c1.9810486 0.96051025 3.5493774 2.4613037 4.7049866 4.5023804c1.1556091 2.026062 1.9360352 4.5624084 2.3412476 7.609009c0.42022705 3.0316162 0.63031006 6.671051 0.63031006 10.918274l0 37.6174l12.854309 0l0 -40.386353c0 -4.8025513 -0.34518433 -9.229889 -1.035553 -13.282013c-0.69036865 -4.0521545 -2.026062 -7.549011 -4.0071106 -10.49057c-1.9810486 -2.956543 -4.7275085 -5.2377625 -8.239349 -6.8435974c-3.4968567 -1.6208801 -8.014252 -2.431305 -13.552185 -2.431305c-2.8515015 0 -5.5229187 0.3001709 -8.014221 0.9004822c-2.491333 0.58529663 -4.7500305 1.2756653 -6.7760925 2.071106c-2.026062 0.7803955 -3.736969 1.5833435 -5.132721 2.4087524c-1.3807068 0.82543945 -2.3937378 1.4707947 -3.039093 1.9360352c-2.1161194 -2.4012756 -4.742523 -4.217224 -7.879181 -5.447876c-3.1366272 -1.2456665 -7.0086975 -1.8684998 -11.616119 -1.8684998z" fill-rule="evenodd"></path><path fill="#666666" d="m392.73312 328.78912c6.2733154 0 11.233459 2.3787537 14.880371 7.1362915c3.6469421 4.7424927 5.470398 11.173401 5.470398 19.292694c0 8.104279 -1.8234558 14.535187 -5.470398 19.292694c-3.6469116 4.7424927 -8.607056 7.1137695 -14.880371 7.1137695c-6.258301 0 -11.210907 -2.3712769 -14.857849 -7.1137695c-3.6469421 -4.7575073 -5.470398 -11.188416 -5.470398 -19.292694c0 -8.119293 1.8234558 -14.550201 5.470398 -19.292694c3.6469421 -4.757538 8.599548 -7.1362915 14.857849 -7.1362915zm0 -11.345978c-4.877594 0 -9.394989 0.90045166 -13.552155 2.701416c-4.1421814 1.8009644 -7.714081 4.3598022 -10.715668 7.676544c-2.9866028 3.3167725 -5.312805 7.3088684 -6.9786987 11.976349c-1.665863 4.652466 -2.4988098 9.792664 -2.4988098 15.420654c0 5.703003 0.8329468 10.865753 2.4988098 15.48819c1.6658936 4.607422 3.992096 8.569519 6.9786987 11.8862915c3.001587 3.316742 6.5734863 5.87558 10.715668 7.676544c4.157196 1.8009644 8.674591 2.701416 13.552155 2.701416c4.8926086 0 9.409973 -0.90045166 13.552185 -2.701416c4.1571655 -1.8009644 7.7290344 -4.3598022 10.715668 -7.676544c3.001587 -3.3167725 5.3352966 -7.2788696 7.00119 -11.8862915c1.665863 -4.622467 2.4988098 -9.785187 2.4988098 -15.48819c0 -5.6279907 -0.8329468 -10.768188 -2.4988098 -15.420654c-1.6658936 -4.6674805 -3.9996033 -8.659576 -7.00119 -11.976349c-2.9865723 -3.316742 -6.558441 -5.87558 -10.715668 -7.676544c-4.142212 -1.8009644 -8.659576 -2.701416 -13.552185 -2.701416z" fill-rule="evenodd"></path><path fill="#666666" d="m473.2347 317.73578c-6.3633423 0 -11.9913025 0.41271973 -16.883911 1.2381592c-4.8775635 0.82543945 -8.787109 1.6058655 -11.728699 2.3412476l0 69.85443l12.854279 0l0 -60.7146c0.46524048 -0.09005737 1.2231445 -0.22512817 2.2737122 -0.4052124c1.0655823 -0.19509888 2.2662354 -0.36019897 3.6018982 -0.49526978c1.3357239 -0.1350708 2.7389832 -0.24761963 4.2097473 -0.337677c1.4857788 -0.10507202 2.9190063 -0.15759277 4.299774 -0.15759277c3.4067993 0 6.258301 0.44274902 8.554504 1.3282166c2.3112183 0.8704529 4.157196 2.2736816 5.5379333 4.209717c1.395752 1.9360352 2.3937683 4.4723816 2.9940796 7.6090393c0.6003113 3.1366577 0.9004822 6.91864 0.9004822 11.345978l0 37.6174l12.854309 0l0 -40.386353c0 -4.892578 -0.46524048 -9.36496 -1.395752 -13.417084c-0.9154663 -4.0521545 -2.5062866 -7.5264893 -4.772522 -10.423035c-2.2511902 -2.9115295 -5.2677917 -5.170227 -9.049774 -6.776062c-3.782013 -1.6208801 -8.532013 -2.431305 -14.250061 -2.431305z" fill-rule="evenodd"></path><path fill="#666666" d="m554.02216 328.9242c3.4968872 0 6.7160645 0.6003418 9.657593 1.8009644c2.956604 1.2006226 5.2227783 2.446289 6.798584 3.736969l0 45.49655c-1.2906494 0.37521362 -3.1141357 0.72787476 -5.470337 1.058075c-2.3412476 0.31515503 -5.2678223 0.4727478 -8.779663 0.4727478c-6.918701 0 -12.456604 -2.2812195 -16.61377 -6.843628c-4.142212 -4.5624084 -6.213318 -11.03833 -6.213318 -19.427765c0 -3.6919556 0.36773682 -7.1512756 1.1030884 -10.377991c0.75042725 -3.226715 1.9510498 -6.0181885 3.6019287 -8.37442c1.6658936 -2.3562622 3.8120117 -4.20224 6.4384155 -5.5379333c2.6263428 -1.3356934 5.7855225 -2.0035706 9.477478 -2.0035706zm29.310486 -45.09134l-12.854309 2.2286987l0 36.35672c-1.5758057 -1.0055542 -3.9545288 -2.0635986 -7.1362305 -3.1741943c-3.166687 -1.1105957 -6.8286133 -1.665863 -10.98584 -1.665863c-5.1627197 0 -9.755127 0.92297363 -13.777283 2.7689514c-4.00708 1.8459778 -7.3914185 4.434845 -10.152832 7.7666016c-2.7614746 3.316742 -4.86261 7.278839 -6.3033447 11.8862915c-1.4257812 4.607422 -2.1386108 9.680115 -2.1386108 15.218048c0 5.808075 0.8554077 11.03833 2.5663452 15.690796c1.7108765 4.652466 4.1271973 8.592041 7.2488403 11.818756c3.1366577 3.2266846 6.91864 5.7180176 11.345947 7.473938c4.427368 1.7559204 9.409973 2.6338806 14.947937 2.6338806c5.988159 0 11.28595 -0.42019653 15.893372 -1.2606506c4.6224976 -0.82543945 8.40448 -1.6508789 11.346008 -2.4763184l0 -105.265656z" fill-rule="evenodd"></path><path fill="#666666" d="m630.2267 295.31393c3.2267456 18.444733 6.708557 35.50876 10.445557 51.192078c3.7369385 15.668274 8.0442505 30.556152 12.921814 44.663605l13.417114 0c3.9770508 -9.965271 7.9467163 -20.200684 11.908813 -30.706238c3.9620361 -10.505554 7.8791504 -21.94159 11.75116 -34.308136c3.8720703 12.366547 7.7441406 23.802582 11.61615 34.308136c3.8720703 10.505554 7.8341675 20.740967 11.8862915 30.706238l13.417114 0c4.8025513 -14.107452 9.072266 -28.99533 12.809265 -44.663605c3.7369995 -15.683319 7.263794 -32.747345 10.580566 -51.192078l-13.709717 0c-1.2907104 7.1888123 -2.6264038 14.407623 -4.007141 21.656433c-1.3807373 7.2338257 -2.7839966 14.242554 -4.209717 21.026123c-1.4257812 6.768585 -2.8815308 13.244507 -4.3673096 19.427765c-1.4707642 6.1832886 -2.9415894 11.856293 -4.4123535 17.019012c-3.6919556 -9.695129 -7.66156 -20.328247 -11.908752 -31.899353c-4.232239 -11.571136 -8.149353 -23.53244 -11.751221 -35.883972l-11.61615 0c-3.6019287 12.351532 -7.4814453 24.312836 -11.638672 35.883972c-4.142151 11.571106 -8.051697 22.204224 -11.728699 31.899353c-1.5758057 -5.2677917 -3.099121 -10.985809 -4.5698853 -17.154083c-1.4708252 -6.183258 -2.9490967 -12.65918 -4.4348755 -19.427765c-1.4707642 -6.7835693 -2.8965454 -13.769775 -4.2772217 -20.958588c-1.3807983 -7.2037964 -2.7164917 -14.400085 -4.007141 -21.588898z" fill-rule="evenodd"></path><path fill="#666666" d="m794.53595 328.3839c5.267761 0 9.394897 1.8684998 12.381531 5.6054688c3.001587 3.7219543 4.4573364 8.4869995 4.3673096 14.295044l-35.681335 0c0.2701416 -2.4913025 0.84039307 -4.930084 1.7108765 -7.316345c0.885437 -2.4012756 2.1085815 -4.5249023 3.6694336 -6.37088c1.5758667 -1.8459778 3.48938 -3.339264 5.7405396 -4.4798584c2.2662354 -1.1556091 4.870117 -1.733429 7.8116455 -1.733429zm0.1350708 -10.940765c-4.142212 0 -8.194336 0.78790283 -12.156433 2.363739c-3.9620972 1.5608215 -7.4664917 3.909546 -10.513062 7.046234c-3.0465698 3.1366577 -5.49292 7.08374 -7.338867 11.841248c-1.8459473 4.742523 -2.768921 10.295441 -2.768921 16.658813c0 5.4328613 0.7128296 10.430511 2.1386108 14.99292c1.4407349 4.5624084 3.631836 8.509491 6.5734253 11.841278c2.956543 3.316742 6.7160645 5.920624 11.278503 7.811615c4.562439 1.8909912 9.980286 2.8364868 16.25354 2.8364868c4.982605 0 9.432495 -0.46524048 13.349609 -1.3957214c3.9170532 -0.9154968 6.663513 -1.7859497 8.239319 -2.6113892l-1.8009644 -10.805695c-1.5758057 0.7353821 -3.909546 1.5007629 -7.0011597 2.2962036c-3.0766602 0.7803955 -6.8737183 1.1706238 -11.391052 1.1706238c-8.029236 0 -13.9348755 -1.9360352 -17.716858 -5.808075c-3.7819824 -3.8720398 -5.9506226 -9.545044 -6.5059204 -17.019012l49.256042 0c0.090026855 -0.7353821 0.1350708 -1.5382996 0.1350708 -2.4087524c0 -0.8854675 0 -1.6058655 0 -2.1611633c0 -12.351532 -2.581421 -21.543884 -7.7441406 -27.577057c-5.1626587 -6.048218 -12.591614 -9.072296 -22.286743 -9.072296z" fill-rule="evenodd"></path><path fill="#666666" d="m872.55084 328.9242c3.6919556 0 6.851074 0.6678772 9.477539 2.0035706c2.6264038 1.3356934 4.7650146 3.1816711 6.4158936 5.5379333c1.6658325 2.3562317 2.866455 5.147705 3.6018677 8.37442c0.7503662 3.226715 1.1256104 6.686035 1.1256104 10.377991c0 8.389435 -2.0785522 14.865356 -6.235779 19.427765c-4.142212 4.5624084 -9.672668 6.843628 -16.591309 6.843628c-3.5118408 0 -6.445862 -0.15759277 -8.802124 -0.4727478c-2.3412476 -0.33016968 -4.1572266 -0.6828613 -5.447876 -1.058075l0 -45.49655c1.560791 -1.2906799 3.819458 -2.5363464 6.776062 -3.736969c2.956543 -1.2006226 6.1832275 -1.8009644 9.680115 -1.8009644zm-16.456177 -45.09134l-12.854309 2.2286987l0 103.03696c2.9415894 0.82543945 6.7161255 1.6508789 11.323486 2.4763184c4.6224365 0.8404541 9.927734 1.2606506 15.915894 1.2606506c5.537964 0 10.513062 -0.8779602 14.925415 -2.6338806c4.427368 -1.7559204 8.209351 -4.2472534 11.346008 -7.473938c3.1365967 -3.226715 5.5528564 -7.1662903 7.2488403 -11.818756c1.7108765 -4.652466 2.5663452 -9.882721 2.5663452 -15.690796c0 -5.5379333 -0.7128906 -10.610626 -2.1386719 -15.218048c-1.4257202 -4.6074524 -3.5267944 -8.56955 -6.3032837 -11.8862915c-2.7615356 -3.3317566 -6.145752 -5.920624 -10.152893 -7.7666016c-4.007141 -1.8459778 -8.592041 -2.7689514 -13.754761 -2.7689514c-4.1572266 0 -7.82666 0.55526733 -11.008301 1.665863c-3.1817017 1.1105957 -5.5529175 2.1686401 -7.1137695 3.1741943l0 -38.58542z" fill-rule="evenodd"></path><path stroke="#434343" stroke-width="4.0" stroke-linejoin="round" stroke-linecap="butt" d="m65.49449 306.09714c12.72673 0 22.219246 3.2567139 28.477554 9.770172c6.273323 6.498413 9.409973 15.600739 9.409973 27.306915c0 11.706207 -3.13665 20.81601 -9.409973 27.329468c-6.2583084 6.498413 -15.750824 9.74765 -28.477554 9.74765c-3.7820015 0 -6.7085457 -0.045013428 -8.779644 -0.1350708c-2.0710945 -0.105041504 -3.526863 -0.2026062 -4.3673058 -0.29266357l0 -73.29874c0.84044266 -0.09005737 2.2962112 -0.18011475 4.3673058 -0.2701416c2.0710983 -0.10507202 4.9976425 -0.15759277 8.779644 -0.15759277zm-1.1030807 -11.751221c-3.8720512 0 -8.141808 0.1651001 -12.809277 0.49526978c-4.652458 0.31515503 -8.86969 0.9379883 -12.651688 1.8684692l0 92.92914c3.7819977 0.9305115 7.9992294 1.5533447 12.651688 1.8684998c4.667469 0.33016968 8.937225 0.49526978 12.809277 0.49526978c7.834137 0 15.022942 -0.99053955 21.566399 -2.9715881c6.558464 -1.9810486 12.1864395 -4.975128 16.883926 -8.982239c4.697487 -4.0221252 8.336914 -9.094818 10.918274 -15.218048c2.5813675 -6.1382446 3.8720474 -13.357056 3.8720474 -21.656464c0 -8.299377 -1.2906799 -15.510681 -3.8720474 -21.633942c-2.5813675 -6.1382446 -6.2207947 -11.210907 -10.918274 -15.218018c-4.697487 -4.0221252 -10.325462 -7.023712 -16.883926 -9.004761c-6.543457 -1.9810486 -13.732262 -2.9715881 -21.566399 -2.9715881z" fill-rule="evenodd"></path><path stroke="#434343" stroke-width="4.0" stroke-linejoin="round" stroke-linecap="butt" d="m143.08559 289.3708c-2.2962189 0 -4.2547455 0.7654114 -5.8756104 2.2962036c-1.6058502 1.5158081 -2.4087677 3.564392 -2.4087677 6.145752c0 2.5813599 0.8029175 4.637451 2.4087677 6.168274c1.6208649 1.5158081 3.5793915 2.2737122 5.8756104 2.2737122c2.3112183 0 4.26976 -0.75790405 5.8756104 -2.2737122c1.6208496 -1.5308228 2.4312897 -3.586914 2.4312897 -6.168274c0 -2.5813599 -0.81044006 -4.629944 -2.4312897 -6.145752c-1.6058502 -1.5307922 -3.564392 -2.2962036 -5.8756104 -2.2962036zm-6.348358 29.873291l0 71.92554l12.854294 0l0 -71.92554z" fill-rule="evenodd"></path><path stroke="#434343" stroke-width="4.0" stroke-linejoin="round" stroke-linecap="butt" d="m198.00183 357.8295c2.9415588 0 5.447891 0.16506958 7.518982 0.49523926c2.08609 0.31518555 3.5868835 0.7053833 4.5023804 1.1706238l0 21.431335c-1.5608368 0.3751831 -3.5193634 0.6303406 -5.8756104 0.7654114c-2.3412323 0.1350708 -5.0351562 0.2026062 -8.081772 0.2026062c-5.072693 0 -9.087311 -0.89297485 -12.043869 -2.6789246c-2.9415436 -1.8009644 -4.4123383 -5.0051575 -4.4123383 -9.612579c0 -2.4913025 0.5928192 -4.494873 1.7784424 -6.010681c1.2006378 -1.5307922 2.7014313 -2.7314453 4.5023804 -3.6018982c1.8009491 -0.8854675 3.7819977 -1.4632874 5.9431458 -1.733429c2.1761475 -0.28512573 4.232239 -0.42770386 6.1682587 -0.42770386zm-3.0391083 -40.386353c-4.5173798 0 -8.712097 0.3451538 -12.584152 1.0355225c-3.8720398 0.69036865 -6.6410065 1.4107666 -8.306885 2.1611633l1.5308075 10.648132c1.5608215 -0.6453552 3.9320831 -1.2681885 7.1137543 -1.8684998c3.1816864 -0.6003113 6.8961487 -0.9004822 11.143402 -0.9004822c3.3167572 0 6.010666 0.48776245 8.081772 1.4632874c2.0710907 0.96051025 3.706955 2.2511902 4.907593 3.8720398c1.2006378 1.605835 2.026062 3.444336 2.476303 5.5154114c0.46524048 2.071106 0.697876 4.1722107 0.697876 6.3033447l0 3.5793762c-0.36019897 -0.090026855 -1.0055237 -0.22509766 -1.9360199 -0.4052124c-0.91548157 -0.18008423 -1.9960632 -0.38269043 -3.2417145 -0.6078186c-1.2456665 -0.2401123 -2.5588684 -0.42773438 -3.9395905 -0.5628052c-1.3807373 -0.15005493 -2.716446 -0.22509766 -4.0071106 -0.22509766c-4.067154 0 -7.946701 0.42022705 -11.638657 1.2606506c-3.6769562 0.82543945 -6.903656 2.1161194 -9.680115 3.8720398c-2.7614594 1.7559509 -4.9526215 4.059662 -6.5734863 6.9111633c-1.6058502 2.8515015 -2.4087677 6.265808 -2.4087677 10.24292c0 4.1421814 0.6903534 7.691559 2.0710907 10.648132c1.3957367 2.9415588 3.3317566 5.312805 5.808075 7.1137695c2.4913177 1.8009338 5.4403687 3.1141357 8.847183 3.9395752c3.4217987 0.8404541 7.158783 1.2606506 11.210922 1.2606506c2.866516 0 5.748047 -0.12005615 8.644562 -0.36016846c2.9115448 -0.22512817 5.612976 -0.48025513 8.104294 -0.7654114c2.4913177 -0.2701416 4.7274933 -0.5628052 6.708542 -0.8779602c1.9810486 -0.33016968 3.5268707 -0.58532715 4.637451 -0.7654114l0 -44.95627c0 -4.0521545 -0.46525574 -7.759094 -1.3957367 -11.12088c-0.9154968 -3.3768005 -2.461319 -6.28833 -4.637451 -8.734619c-2.161148 -2.446289 -5.020157 -4.3372803 -8.577026 -5.673004c-3.5418854 -1.3356934 -7.8941956 -2.00354 -13.056915 -2.00354z" fill-rule="evenodd"></path><path stroke="#434343" stroke-width="4.0" stroke-linejoin="round" stroke-linecap="butt" d="m272.40744 317.73578c-6.363373 0 -11.968842 0.41271973 -16.816406 1.2381592c-4.83255 0.82543945 -8.71962 1.6058655 -11.661163 2.3412476l0 69.85443l12.854309 0l0 -60.7146c0.36016846 -0.09005737 1.095581 -0.22512817 2.2061462 -0.4052124c1.1105957 -0.19509888 2.3337402 -0.36019897 3.669464 -0.49526978c1.3356934 -0.1350708 2.738922 -0.24761963 4.209717 -0.337677c1.4857788 -0.10507202 2.8740234 -0.15759277 4.1647034 -0.15759277c3.0316162 0 5.5379333 0.48776245 7.518982 1.4632874c1.9960632 0.96051025 3.564392 2.4613037 4.7049866 4.5023804c1.1555786 2.026062 1.9660339 4.5624084 2.4312744 7.609009c0.46524048 3.0316162 0.697876 6.671051 0.697876 10.918274l0 37.6174l12.854279 0l0 -40.386353c0 -3.1366577 -0.18759155 -6.1307373 -0.56277466 -8.982239c-0.36019897 -2.866516 -0.9079895 -5.5004272 -1.6433716 -7.901703c1.0055237 -0.9154663 2.9115295 -1.9510193 5.7180176 -3.1066284c2.8214722 -1.1556091 6.400879 -1.733429 10.738159 -1.733429c3.1366577 0 5.695526 0.48776245 7.6765747 1.4632874c1.9810486 0.96051025 3.5493774 2.4613037 4.7049866 4.5023804c1.1556091 2.026062 1.9360352 4.5624084 2.3412476 7.609009c0.42022705 3.0316162 0.63031006 6.671051 0.63031006 10.918274l0 37.6174l12.854309 0l0 -40.386353c0 -4.8025513 -0.34518433 -9.229889 -1.035553 -13.282013c-0.69036865 -4.0521545 -2.026062 -7.549011 -4.0071106 -10.49057c-1.9810486 -2.956543 -4.7275085 -5.2377625 -8.239349 -6.8435974c-3.4968567 -1.6208801 -8.014252 -2.431305 -13.552185 -2.431305c-2.8515015 0 -5.5229187 0.3001709 -8.014221 0.9004822c-2.491333 0.58529663 -4.7500305 1.2756653 -6.7760925 2.071106c-2.026062 0.7803955 -3.736969 1.5833435 -5.132721 2.4087524c-1.3807068 0.82543945 -2.3937378 1.4707947 -3.039093 1.9360352c-2.1161194 -2.4012756 -4.742523 -4.217224 -7.879181 -5.447876c-3.1366272 -1.2456665 -7.0086975 -1.8684998 -11.616119 -1.8684998z" fill-rule="evenodd"></path><path stroke="#434343" stroke-width="4.0" stroke-linejoin="round" stroke-linecap="butt" d="m392.73312 328.78912c6.2733154 0 11.233459 2.3787537 14.880371 7.1362915c3.6469421 4.7424927 5.470398 11.173401 5.470398 19.292694c0 8.104279 -1.8234558 14.535187 -5.470398 19.292694c-3.6469116 4.7424927 -8.607056 7.1137695 -14.880371 7.1137695c-6.258301 0 -11.210907 -2.3712769 -14.857849 -7.1137695c-3.6469421 -4.7575073 -5.470398 -11.188416 -5.470398 -19.292694c0 -8.119293 1.8234558 -14.550201 5.470398 -19.292694c3.6469421 -4.757538 8.599548 -7.1362915 14.857849 -7.1362915zm0 -11.345978c-4.877594 0 -9.394989 0.90045166 -13.552155 2.701416c-4.1421814 1.8009644 -7.714081 4.3598022 -10.715668 7.676544c-2.9866028 3.3167725 -5.312805 7.3088684 -6.9786987 11.976349c-1.665863 4.652466 -2.4988098 9.792664 -2.4988098 15.420654c0 5.703003 0.8329468 10.865753 2.4988098 15.48819c1.6658936 4.607422 3.992096 8.569519 6.9786987 11.8862915c3.001587 3.316742 6.5734863 5.87558 10.715668 7.676544c4.157196 1.8009644 8.674591 2.701416 13.552155 2.701416c4.8926086 0 9.409973 -0.90045166 13.552185 -2.701416c4.1571655 -1.8009644 7.7290344 -4.3598022 10.715668 -7.676544c3.001587 -3.3167725 5.3352966 -7.2788696 7.00119 -11.8862915c1.665863 -4.622467 2.4988098 -9.785187 2.4988098 -15.48819c0 -5.6279907 -0.8329468 -10.768188 -2.4988098 -15.420654c-1.6658936 -4.6674805 -3.9996033 -8.659576 -7.00119 -11.976349c-2.9865723 -3.316742 -6.558441 -5.87558 -10.715668 -7.676544c-4.142212 -1.8009644 -8.659576 -2.701416 -13.552185 -2.701416z" fill-rule="evenodd"></path><path stroke="#434343" stroke-width="4.0" stroke-linejoin="round" stroke-linecap="butt" d="m473.2347 317.73578c-6.3633423 0 -11.9913025 0.41271973 -16.883911 1.2381592c-4.8775635 0.82543945 -8.787109 1.6058655 -11.728699 2.3412476l0 69.85443l12.854279 0l0 -60.7146c0.46524048 -0.09005737 1.2231445 -0.22512817 2.2737122 -0.4052124c1.0655823 -0.19509888 2.2662354 -0.36019897 3.6018982 -0.49526978c1.3357239 -0.1350708 2.7389832 -0.24761963 4.2097473 -0.337677c1.4857788 -0.10507202 2.9190063 -0.15759277 4.299774 -0.15759277c3.4067993 0 6.258301 0.44274902 8.554504 1.3282166c2.3112183 0.8704529 4.157196 2.2736816 5.5379333 4.209717c1.395752 1.9360352 2.3937683 4.4723816 2.9940796 7.6090393c0.6003113 3.1366577 0.9004822 6.91864 0.9004822 11.345978l0 37.6174l12.854309 0l0 -40.386353c0 -4.892578 -0.46524048 -9.36496 -1.395752 -13.417084c-0.9154663 -4.0521545 -2.5062866 -7.5264893 -4.772522 -10.423035c-2.2511902 -2.9115295 -5.2677917 -5.170227 -9.049774 -6.776062c-3.782013 -1.6208801 -8.532013 -2.431305 -14.250061 -2.431305z" fill-rule="evenodd"></path><path stroke="#434343" stroke-width="4.0" stroke-linejoin="round" stroke-linecap="butt" d="m554.02216 328.9242c3.4968872 0 6.7160645 0.6003418 9.657593 1.8009644c2.956604 1.2006226 5.2227783 2.446289 6.798584 3.736969l0 45.49655c-1.2906494 0.37521362 -3.1141357 0.72787476 -5.470337 1.058075c-2.3412476 0.31515503 -5.2678223 0.4727478 -8.779663 0.4727478c-6.918701 0 -12.456604 -2.2812195 -16.61377 -6.843628c-4.142212 -4.5624084 -6.213318 -11.03833 -6.213318 -19.427765c0 -3.6919556 0.36773682 -7.1512756 1.1030884 -10.377991c0.75042725 -3.226715 1.9510498 -6.0181885 3.6019287 -8.37442c1.6658936 -2.3562622 3.8120117 -4.20224 6.4384155 -5.5379333c2.6263428 -1.3356934 5.7855225 -2.0035706 9.477478 -2.0035706zm29.310486 -45.09134l-12.854309 2.2286987l0 36.35672c-1.5758057 -1.0055542 -3.9545288 -2.0635986 -7.1362305 -3.1741943c-3.166687 -1.1105957 -6.8286133 -1.665863 -10.98584 -1.665863c-5.1627197 0 -9.755127 0.92297363 -13.777283 2.7689514c-4.00708 1.8459778 -7.3914185 4.434845 -10.152832 7.7666016c-2.7614746 3.316742 -4.86261 7.278839 -6.3033447 11.8862915c-1.4257812 4.607422 -2.1386108 9.680115 -2.1386108 15.218048c0 5.808075 0.8554077 11.03833 2.5663452 15.690796c1.7108765 4.652466 4.1271973 8.592041 7.2488403 11.818756c3.1366577 3.2266846 6.91864 5.7180176 11.345947 7.473938c4.427368 1.7559204 9.409973 2.6338806 14.947937 2.6338806c5.988159 0 11.28595 -0.42019653 15.893372 -1.2606506c4.6224976 -0.82543945 8.40448 -1.6508789 11.346008 -2.4763184l0 -105.265656z" fill-rule="evenodd"></path><path stroke="#434343" stroke-width="4.0" stroke-linejoin="round" stroke-linecap="butt" d="m630.2267 295.31393c3.2267456 18.444733 6.708557 35.50876 10.445557 51.192078c3.7369385 15.668274 8.0442505 30.556152 12.921814 44.663605l13.417114 0c3.9770508 -9.965271 7.9467163 -20.200684 11.908813 -30.706238c3.9620361 -10.505554 7.8791504 -21.94159 11.75116 -34.308136c3.8720703 12.366547 7.7441406 23.802582 11.61615 34.308136c3.8720703 10.505554 7.8341675 20.740967 11.8862915 30.706238l13.417114 0c4.8025513 -14.107452 9.072266 -28.99533 12.809265 -44.663605c3.7369995 -15.683319 7.263794 -32.747345 10.580566 -51.192078l-13.709717 0c-1.2907104 7.1888123 -2.6264038 14.407623 -4.007141 21.656433c-1.3807373 7.2338257 -2.7839966 14.242554 -4.209717 21.026123c-1.4257812 6.768585 -2.8815308 13.244507 -4.3673096 19.427765c-1.4707642 6.1832886 -2.9415894 11.856293 -4.4123535 17.019012c-3.6919556 -9.695129 -7.66156 -20.328247 -11.908752 -31.899353c-4.232239 -11.571136 -8.149353 -23.53244 -11.751221 -35.883972l-11.61615 0c-3.6019287 12.351532 -7.4814453 24.312836 -11.638672 35.883972c-4.142151 11.571106 -8.051697 22.204224 -11.728699 31.899353c-1.5758057 -5.2677917 -3.099121 -10.985809 -4.5698853 -17.154083c-1.4708252 -6.183258 -2.9490967 -12.65918 -4.4348755 -19.427765c-1.4707642 -6.7835693 -2.8965454 -13.769775 -4.2772217 -20.958588c-1.3807983 -7.2037964 -2.7164917 -14.400085 -4.007141 -21.588898z" fill-rule="evenodd"></path><path stroke="#434343" stroke-width="4.0" stroke-linejoin="round" stroke-linecap="butt" d="m794.53595 328.3839c5.267761 0 9.394897 1.8684998 12.381531 5.6054688c3.001587 3.7219543 4.4573364 8.4869995 4.3673096 14.295044l-35.681335 0c0.2701416 -2.4913025 0.84039307 -4.930084 1.7108765 -7.316345c0.885437 -2.4012756 2.1085815 -4.5249023 3.6694336 -6.37088c1.5758667 -1.8459778 3.48938 -3.339264 5.7405396 -4.4798584c2.2662354 -1.1556091 4.870117 -1.733429 7.8116455 -1.733429zm0.1350708 -10.940765c-4.142212 0 -8.194336 0.78790283 -12.156433 2.363739c-3.9620972 1.5608215 -7.4664917 3.909546 -10.513062 7.046234c-3.0465698 3.1366577 -5.49292 7.08374 -7.338867 11.841248c-1.8459473 4.742523 -2.768921 10.295441 -2.768921 16.658813c0 5.4328613 0.7128296 10.430511 2.1386108 14.99292c1.4407349 4.5624084 3.631836 8.509491 6.5734253 11.841278c2.956543 3.316742 6.7160645 5.920624 11.278503 7.811615c4.562439 1.8909912 9.980286 2.8364868 16.25354 2.8364868c4.982605 0 9.432495 -0.46524048 13.349609 -1.3957214c3.9170532 -0.9154968 6.663513 -1.7859497 8.239319 -2.6113892l-1.8009644 -10.805695c-1.5758057 0.7353821 -3.909546 1.5007629 -7.0011597 2.2962036c-3.0766602 0.7803955 -6.8737183 1.1706238 -11.391052 1.1706238c-8.029236 0 -13.9348755 -1.9360352 -17.716858 -5.808075c-3.7819824 -3.8720398 -5.9506226 -9.545044 -6.5059204 -17.019012l49.256042 0c0.090026855 -0.7353821 0.1350708 -1.5382996 0.1350708 -2.4087524c0 -0.8854675 0 -1.6058655 0 -2.1611633c0 -12.351532 -2.581421 -21.543884 -7.7441406 -27.577057c-5.1626587 -6.048218 -12.591614 -9.072296 -22.286743 -9.072296z" fill-rule="evenodd"></path><path stroke="#434343" stroke-width="4.0" stroke-linejoin="round" stroke-linecap="butt" d="m872.55084 328.9242c3.6919556 0 6.851074 0.6678772 9.477539 2.0035706c2.6264038 1.3356934 4.7650146 3.1816711 6.4158936 5.5379333c1.6658325 2.3562317 2.866455 5.147705 3.6018677 8.37442c0.7503662 3.226715 1.1256104 6.686035 1.1256104 10.377991c0 8.389435 -2.0785522 14.865356 -6.235779 19.427765c-4.142212 4.5624084 -9.672668 6.843628 -16.591309 6.843628c-3.5118408 0 -6.445862 -0.15759277 -8.802124 -0.4727478c-2.3412476 -0.33016968 -4.1572266 -0.6828613 -5.447876 -1.058075l0 -45.49655c1.560791 -1.2906799 3.819458 -2.5363464 6.776062 -3.736969c2.956543 -1.2006226 6.1832275 -1.8009644 9.680115 -1.8009644zm-16.456177 -45.09134l-12.854309 2.2286987l0 103.03696c2.9415894 0.82543945 6.7161255 1.6508789 11.323486 2.4763184c4.6224365 0.8404541 9.927734 1.2606506 15.915894 1.2606506c5.537964 0 10.513062 -0.8779602 14.925415 -2.6338806c4.427368 -1.7559204 8.209351 -4.2472534 11.346008 -7.473938c3.1365967 -3.226715 5.5528564 -7.1662903 7.2488403 -11.818756c1.7108765 -4.652466 2.5663452 -9.882721 2.5663452 -15.690796c0 -5.5379333 -0.7128906 -10.610626 -2.1386719 -15.218048c-1.4257202 -4.6074524 -3.5267944 -8.56955 -6.3032837 -11.8862915c-2.7615356 -3.3317566 -6.145752 -5.920624 -10.152893 -7.7666016c-4.007141 -1.8459778 -8.592041 -2.7689514 -13.754761 -2.7689514c-4.1572266 0 -7.82666 0.55526733 -11.008301 1.665863c-3.1817017 1.1105957 -5.5529175 2.1686401 -7.1137695 3.1741943l0 -38.58542z" fill-rule="evenodd"></path><path fill="#00ffff" d="m79.995804 306.09714c12.72673 0 22.219246 3.2567139 28.477554 9.770172c6.273323 6.498413 9.409973 15.600739 9.409973 27.306915c0 11.706207 -3.13665 20.81601 -9.409973 27.329468c-6.2583084 6.498413 -15.750824 9.74765 -28.477554 9.74765c-3.7819977 0 -6.7085495 -0.045013428 -8.77964 -0.1350708c-2.0710983 -0.105041504 -3.526863 -0.2026062 -4.3673096 -0.29266357l0 -73.29874c0.8404465 -0.09005737 2.2962112 -0.18011475 4.3673096 -0.2701416c2.0710907 -0.10507202 4.9976425 -0.15759277 8.77964 -0.15759277zm-1.1030807 -11.751221c-3.8720474 0 -8.141808 0.1651001 -12.809273 0.49526978c-4.652462 0.31515503 -8.86969 0.9379883 -12.651691 1.8684692l0 92.92914c3.7820015 0.9305115 7.9992294 1.5533447 12.651691 1.8684998c4.667465 0.33016968 8.937225 0.49526978 12.809273 0.49526978c7.834137 0 15.022942 -0.99053955 21.566399 -2.9715881c6.558464 -1.9810486 12.1864395 -4.975128 16.883926 -8.982239c4.697487 -4.0221252 8.336914 -9.094818 10.918274 -15.218048c2.5813599 -6.1382446 3.8720398 -13.357056 3.8720398 -21.656464c0 -8.299377 -1.2906799 -15.510681 -3.8720398 -21.633942c-2.5813675 -6.1382446 -6.2207947 -11.210907 -10.918274 -15.218018c-4.697487 -4.0221252 -10.325462 -7.023712 -16.883926 -9.004761c-6.543457 -1.9810486 -13.732262 -2.9715881 -21.566399 -2.9715881z" fill-rule="evenodd"></path><path fill="#00ffff" d="m157.5869 289.3708c-2.2962189 0 -4.2547455 0.7654114 -5.8756104 2.2962036c-1.6058502 1.5158081 -2.4087677 3.564392 -2.4087677 6.145752c0 2.5813599 0.8029175 4.637451 2.4087677 6.168274c1.6208649 1.5158081 3.5793915 2.2737122 5.8756104 2.2737122c2.3112183 0 4.26976 -0.75790405 5.8756104 -2.2737122c1.6208496 -1.5308228 2.4312897 -3.586914 2.4312897 -6.168274c0 -2.5813599 -0.81044006 -4.629944 -2.4312897 -6.145752c-1.6058502 -1.5307922 -3.564392 -2.2962036 -5.8756104 -2.2962036zm-6.348358 29.873291l0 71.92554l12.854294 0l0 -71.92554z" fill-rule="evenodd"></path><path fill="#00ffff" d="m212.50314 357.8295c2.9415588 0 5.447891 0.16506958 7.518982 0.49523926c2.08609 0.31518555 3.5868835 0.7053833 4.5023804 1.1706238l0 21.431335c-1.5608368 0.3751831 -3.5193634 0.6303406 -5.8756104 0.7654114c-2.3412323 0.1350708 -5.0351562 0.2026062 -8.081772 0.2026062c-5.072693 0 -9.087311 -0.89297485 -12.043869 -2.6789246c-2.9415436 -1.8009644 -4.4123383 -5.0051575 -4.4123383 -9.612579c0 -2.4913025 0.5928192 -4.494873 1.7784424 -6.010681c1.2006378 -1.5307922 2.7014313 -2.7314453 4.5023804 -3.6018982c1.8009491 -0.8854675 3.7819977 -1.4632874 5.9431458 -1.733429c2.1761475 -0.28512573 4.232239 -0.42770386 6.1682587 -0.42770386zm-3.0391083 -40.386353c-4.5173798 0 -8.712097 0.3451538 -12.584152 1.0355225c-3.8720398 0.69036865 -6.6410065 1.4107666 -8.306885 2.1611633l1.5308075 10.648132c1.5608215 -0.6453552 3.9320831 -1.2681885 7.1137543 -1.8684998c3.1816864 -0.6003113 6.8961487 -0.9004822 11.143402 -0.9004822c3.3167572 0 6.010666 0.48776245 8.081772 1.4632874c2.0710907 0.96051025 3.706955 2.2511902 4.907593 3.8720398c1.2006378 1.605835 2.026062 3.444336 2.476303 5.5154114c0.46524048 2.071106 0.697876 4.1722107 0.697876 6.3033447l0 3.5793762c-0.36019897 -0.090026855 -1.0055237 -0.22509766 -1.9360199 -0.4052124c-0.91548157 -0.18008423 -1.9960632 -0.38269043 -3.2417145 -0.6078186c-1.2456665 -0.2401123 -2.5588684 -0.42773438 -3.9395905 -0.5628052c-1.3807373 -0.15005493 -2.716446 -0.22509766 -4.0071106 -0.22509766c-4.067154 0 -7.946701 0.42022705 -11.638657 1.2606506c-3.6769562 0.82543945 -6.903656 2.1161194 -9.680115 3.8720398c-2.7614594 1.7559509 -4.9526215 4.059662 -6.5734863 6.9111633c-1.6058502 2.8515015 -2.4087677 6.265808 -2.4087677 10.24292c0 4.1421814 0.6903534 7.691559 2.0710907 10.648132c1.3957367 2.9415588 3.3317566 5.312805 5.808075 7.1137695c2.4913177 1.8009338 5.4403687 3.1141357 8.847183 3.9395752c3.4217987 0.8404541 7.158783 1.2606506 11.210922 1.2606506c2.866516 0 5.748047 -0.12005615 8.644562 -0.36016846c2.9115448 -0.22512817 5.612976 -0.48025513 8.104294 -0.7654114c2.4913177 -0.2701416 4.7274933 -0.5628052 6.708542 -0.8779602c1.9810486 -0.33016968 3.5268707 -0.58532715 4.637451 -0.7654114l0 -44.95627c0 -4.0521545 -0.46525574 -7.759094 -1.3957367 -11.12088c-0.9154968 -3.3768005 -2.461319 -6.28833 -4.637451 -8.734619c-2.161148 -2.446289 -5.020157 -4.3372803 -8.577026 -5.673004c-3.5418854 -1.3356934 -7.8941956 -2.00354 -13.056915 -2.00354z" fill-rule="evenodd"></path><path fill="#00ffff" d="m286.90875 317.73578c-6.363373 0 -11.968842 0.41271973 -16.816406 1.2381592c-4.83255 0.82543945 -8.7196045 1.6058655 -11.661163 2.3412476l0 69.85443l12.854309 0l0 -60.7146c0.36016846 -0.09005737 1.095581 -0.22512817 2.2061462 -0.4052124c1.1105957 -0.19509888 2.3337402 -0.36019897 3.669464 -0.49526978c1.3356934 -0.1350708 2.738922 -0.24761963 4.209717 -0.337677c1.4857788 -0.10507202 2.8740234 -0.15759277 4.1647034 -0.15759277c3.0316162 0 5.5379333 0.48776245 7.518982 1.4632874c1.9960632 0.96051025 3.564392 2.4613037 4.7049866 4.5023804c1.1555786 2.026062 1.9660339 4.5624084 2.4312744 7.609009c0.46524048 3.0316162 0.697876 6.671051 0.697876 10.918274l0 37.6174l12.854279 0l0 -40.386353c0 -3.1366577 -0.18759155 -6.1307373 -0.56277466 -8.982239c-0.36019897 -2.866516 -0.9079895 -5.5004272 -1.6433716 -7.901703c1.0055237 -0.9154663 2.9115295 -1.9510193 5.7180176 -3.1066284c2.8214722 -1.1556091 6.400879 -1.733429 10.738159 -1.733429c3.1366577 0 5.695526 0.48776245 7.6765747 1.4632874c1.9810486 0.96051025 3.5493774 2.4613037 4.7049866 4.5023804c1.1556091 2.026062 1.9360352 4.5624084 2.3412476 7.609009c0.42022705 3.0316162 0.63031006 6.671051 0.63031006 10.918274l0 37.6174l12.854309 0l0 -40.386353c0 -4.8025513 -0.34518433 -9.229889 -1.035553 -13.282013c-0.69036865 -4.0521545 -2.026062 -7.549011 -4.0071106 -10.49057c-1.9810486 -2.956543 -4.7275085 -5.2377625 -8.239349 -6.8435974c-3.4968567 -1.6208801 -8.014252 -2.431305 -13.552185 -2.431305c-2.8515015 0 -5.5229187 0.3001709 -8.014221 0.9004822c-2.491333 0.58529663 -4.7500305 1.2756653 -6.7760925 2.071106c-2.026062 0.7803955 -3.736969 1.5833435 -5.132721 2.4087524c-1.3807068 0.82543945 -2.3937378 1.4707947 -3.039093 1.9360352c-2.1161194 -2.4012756 -4.742523 -4.217224 -7.879181 -5.447876c-3.1366272 -1.2456665 -7.0086975 -1.8684998 -11.616119 -1.8684998z" fill-rule="evenodd"></path><path fill="#00ffff" d="m407.23444 328.78912c6.2733154 0 11.233459 2.3787537 14.880371 7.1362915c3.6469421 4.7424927 5.470398 11.173401 5.470398 19.292694c0 8.104279 -1.8234558 14.535187 -5.470398 19.292694c-3.6469116 4.7424927 -8.607056 7.1137695 -14.880371 7.1137695c-6.258301 0 -11.210907 -2.3712769 -14.857849 -7.1137695c-3.6469421 -4.7575073 -5.470398 -11.188416 -5.470398 -19.292694c0 -8.119293 1.8234558 -14.550201 5.470398 -19.292694c3.6469421 -4.757538 8.599548 -7.1362915 14.857849 -7.1362915zm0 -11.345978c-4.877594 0 -9.394989 0.90045166 -13.552155 2.701416c-4.1421814 1.8009644 -7.714081 4.3598022 -10.715668 7.676544c-2.9866028 3.3167725 -5.312805 7.3088684 -6.9786987 11.976349c-1.665863 4.652466 -2.4988098 9.792664 -2.4988098 15.420654c0 5.703003 0.8329468 10.865753 2.4988098 15.48819c1.6658936 4.607422 3.992096 8.569519 6.9786987 11.8862915c3.001587 3.316742 6.5734863 5.87558 10.715668 7.676544c4.157196 1.8009644 8.674591 2.701416 13.552155 2.701416c4.8926086 0 9.409973 -0.90045166 13.552185 -2.701416c4.1571655 -1.8009644 7.7290344 -4.3598022 10.715668 -7.676544c3.001587 -3.3167725 5.3352966 -7.2788696 7.00119 -11.8862915c1.665863 -4.622467 2.4988098 -9.785187 2.4988098 -15.48819c0 -5.6279907 -0.8329468 -10.768188 -2.4988098 -15.420654c-1.6658936 -4.6674805 -3.9996033 -8.659576 -7.00119 -11.976349c-2.9865723 -3.316742 -6.558441 -5.87558 -10.715668 -7.676544c-4.142212 -1.8009644 -8.659576 -2.701416 -13.552185 -2.701416z" fill-rule="evenodd"></path><path fill="#00ffff" d="m487.73605 317.73578c-6.363373 0 -11.991333 0.41271973 -16.883942 1.2381592c-4.8775635 0.82543945 -8.787109 1.6058655 -11.728699 2.3412476l0 69.85443l12.854279 0l0 -60.7146c0.46524048 -0.09005737 1.2231445 -0.22512817 2.2737122 -0.4052124c1.0655823 -0.19509888 2.2662354 -0.36019897 3.6018982 -0.49526978c1.3357239 -0.1350708 2.7389832 -0.24761963 4.2097473 -0.337677c1.4857788 -0.10507202 2.9190063 -0.15759277 4.299774 -0.15759277c3.4067993 0 6.258301 0.44274902 8.554504 1.3282166c2.3112183 0.8704529 4.157196 2.2736816 5.5379333 4.209717c1.395752 1.9360352 2.3937683 4.4723816 2.9940796 7.6090393c0.6003113 3.1366577 0.9004822 6.91864 0.9004822 11.345978l0 37.6174l12.854279 0l0 -40.386353c0 -4.892578 -0.46520996 -9.36496 -1.3956909 -13.417084c-0.91552734 -4.0521545 -2.5063477 -7.5264893 -4.7725525 -10.423035c-2.2511902 -2.9115295 -5.2677917 -5.170227 -9.049774 -6.776062c-3.782013 -1.6208801 -8.532013 -2.431305 -14.2500305 -2.431305z" fill-rule="evenodd"></path><path fill="#00ffff" d="m568.5235 328.9242c3.4968262 0 6.7160645 0.6003418 9.657593 1.8009644c2.956543 1.2006226 5.2227783 2.446289 6.798584 3.736969l0 45.49655c-1.2907104 0.37521362 -3.1141357 0.72787476 -5.470398 1.058075c-2.3412476 0.31515503 -5.267761 0.4727478 -8.779663 0.4727478c-6.91864 0 -12.456604 -2.2812195 -16.61377 -6.843628c-4.142151 -4.5624084 -6.213257 -11.03833 -6.213257 -19.427765c0 -3.6919556 0.36767578 -7.1512756 1.1030884 -10.377991c0.7503662 -3.226715 1.9510498 -6.0181885 3.6018677 -8.37442c1.6658936 -2.3562622 3.8120728 -4.20224 6.4384155 -5.5379333c2.6264038 -1.3356934 5.7855835 -2.0035706 9.477539 -2.0035706zm29.310486 -45.09134l-12.854309 2.2286987l0 36.35672c-1.5758057 -1.0055542 -3.9545898 -2.0635986 -7.1362915 -3.1741943c-3.166626 -1.1105957 -6.8285522 -1.665863 -10.985779 -1.665863c-5.162781 0 -9.755188 0.92297363 -13.777283 2.7689514c-4.007141 1.8459778 -7.3914185 4.434845 -10.152893 7.7666016c-2.7614136 3.316742 -4.862549 7.278839 -6.3033447 11.8862915c-1.4257202 4.607422 -2.1386108 9.680115 -2.1386108 15.218048c0 5.808075 0.85546875 11.03833 2.5663452 15.690796c1.7109375 4.652466 4.1271973 8.592041 7.2488403 11.818756c3.1366577 3.2266846 6.918701 5.7180176 11.346008 7.473938c4.427307 1.7559204 9.409973 2.6338806 14.947876 2.6338806c5.98822 0 11.286011 -0.42019653 15.893433 -1.2606506c4.6224365 -0.82543945 8.40448 -1.6508789 11.346008 -2.4763184l0 -105.265656z" fill-rule="evenodd"></path><path fill="#00ffff" d="m644.728 295.31393c3.2266846 18.444733 6.708557 35.50876 10.445496 51.192078c3.7369995 15.668274 8.044312 30.556152 12.921875 44.663605l13.417053 0c3.9771118 -9.965271 7.9467163 -20.200684 11.908813 -30.706238c3.9620972 -10.505554 7.8791504 -21.94159 11.751221 -34.308136c3.8720703 12.366547 7.7440796 23.802582 11.61615 34.308136c3.8720093 10.505554 7.8341064 20.740967 11.8862915 30.706238l13.417053 0c4.8025513 -14.107452 9.072327 -28.99533 12.809265 -44.663605c3.7369995 -15.683319 7.263855 -32.747345 10.580627 -51.192078l-13.709778 0c-1.2906494 7.1888123 -2.6264038 14.407623 -4.00708 21.656433c-1.3807373 7.2338257 -2.7839966 14.242554 -4.209717 21.026123c-1.4257812 6.768585 -2.8815308 13.244507 -4.3673096 19.427765c-1.4708252 6.1832886 -2.9415894 11.856293 -4.4123535 17.019012c-3.6919556 -9.695129 -7.66156 -20.328247 -11.908813 -31.899353c-4.232239 -11.571136 -8.149292 -23.53244 -11.751221 -35.883972l-11.61615 0c-3.6018677 12.351532 -7.4814453 24.312836 -11.638611 35.883972c-4.142212 11.571106 -8.051758 22.204224 -11.728699 31.899353c-1.5758667 -5.2677917 -3.099121 -10.985809 -4.5699463 -17.154083c-1.4707642 -6.183258 -2.9490356 -12.65918 -4.4348145 -19.427765c-1.4708252 -6.7835693 -2.8966064 -13.769775 -4.2772827 -20.958588c-1.3807373 -7.2037964 -2.7164307 -14.400085 -4.007141 -21.588898z" fill-rule="evenodd"></path><path fill="#00ffff" d="m809.03723 328.3839c5.2678223 0 9.3949585 1.8684998 12.381592 5.6054688c3.0015259 3.7219543 4.4573364 8.4869995 4.3673096 14.295044l-35.681396 0c0.2701416 -2.4913025 0.84039307 -4.930084 1.7109375 -7.316345c0.885437 -2.4012756 2.1085205 -4.5249023 3.6694336 -6.37088c1.5758057 -1.8459778 3.4893188 -3.339264 5.7405396 -4.4798584c2.2661743 -1.1556091 4.870117 -1.733429 7.8115845 -1.733429zm0.1350708 -10.940765c-4.142151 0 -8.194336 0.78790283 -12.156433 2.363739c-3.9620972 1.5608215 -7.4664307 3.909546 -10.513062 7.046234c-3.0465698 3.1366577 -5.492859 7.08374 -7.338806 11.841248c-1.8459473 4.742523 -2.768982 10.295441 -2.768982 16.658813c0 5.4328613 0.7128906 10.430511 2.1386719 14.99292c1.4406738 4.5624084 3.631836 8.509491 6.5734253 11.841278c2.956543 3.316742 6.7160034 5.920624 11.278442 7.811615c4.562439 1.8909912 9.980347 2.8364868 16.253601 2.8364868c4.982605 0 9.432495 -0.46524048 13.349548 -1.3957214c3.9170532 -0.9154968 6.663513 -1.7859497 8.23938 -2.6113892l-1.8009644 -10.805695c-1.5758667 0.7353821 -3.909607 1.5007629 -7.0012207 2.2962036c-3.0766602 0.7803955 -6.873657 1.1706238 -11.390991 1.1706238c-8.029297 0 -13.9348755 -1.9360352 -17.716858 -5.808075c-3.7820435 -3.8720398 -5.9506226 -9.545044 -6.5059814 -17.019012l49.256042 0c0.09008789 -0.7353821 0.1350708 -1.5382996 0.1350708 -2.4087524c0 -0.8854675 0 -1.6058655 0 -2.1611633c0 -12.351532 -2.5813599 -21.543884 -7.7440796 -27.577057c-5.1627197 -6.048218 -12.591614 -9.072296 -22.286804 -9.072296z" fill-rule="evenodd"></path><path fill="#00ffff" d="m887.0522 328.9242c3.6919556 0 6.851074 0.6678772 9.477478 2.0035706c2.6264038 1.3356934 4.7650757 3.1816711 6.4158936 5.5379333c1.6658936 2.3562317 2.866516 5.147705 3.6019287 8.37442c0.7503662 3.226715 1.1255493 6.686035 1.1255493 10.377991c0 8.389435 -2.0785522 14.865356 -6.235779 19.427765c-4.142151 4.5624084 -9.672607 6.843628 -16.591248 6.843628c-3.5118408 0 -6.445923 -0.15759277 -8.802185 -0.4727478c-2.3412476 -0.33016968 -4.1572266 -0.6828613 -5.447876 -1.058075l0 -45.49655c1.560791 -1.2906799 3.819458 -2.5363464 6.776123 -3.736969c2.956482 -1.2006226 6.1831665 -1.8009644 9.680115 -1.8009644zm-16.456238 -45.09134l-12.854309 2.2286987l0 103.03696c2.9415894 0.82543945 6.7161255 1.6508789 11.323486 2.4763184c4.6224365 0.8404541 9.927795 1.2606506 15.915955 1.2606506c5.537903 0 10.513062 -0.8779602 14.925354 -2.6338806c4.427368 -1.7559204 8.209412 -4.2472534 11.346008 -7.473938c3.1366577 -3.226715 5.5529175 -7.1662903 7.2488403 -11.818756c1.7109375 -4.652466 2.5663452 -9.882721 2.5663452 -15.690796c0 -5.5379333 -0.7128906 -10.610626 -2.1386108 -15.218048c-1.4257202 -4.6074524 -3.5267944 -8.56955 -6.3033447 -11.8862915c-2.7614746 -3.3317566 -6.145752 -5.920624 -10.152832 -7.7666016c-4.007141 -1.8459778 -8.592102 -2.7689514 -13.754822 -2.7689514c-4.1572266 0 -7.82666 0.55526733 -11.008301 1.665863c-3.1816406 1.1105957 -5.5528564 2.1686401 -7.1137695 3.1741943l0 -38.58542z" fill-rule="evenodd"></path><path stroke="#434343" stroke-width="4.0" stroke-linejoin="round" stroke-linecap="butt" d="m79.995804 306.09714c12.72673 0 22.219246 3.2567139 28.477554 9.770172c6.273323 6.498413 9.409973 15.600739 9.409973 27.306915c0 11.706207 -3.13665 20.81601 -9.409973 27.329468c-6.2583084 6.498413 -15.750824 9.74765 -28.477554 9.74765c-3.7819977 0 -6.7085495 -0.045013428 -8.77964 -0.1350708c-2.0710983 -0.105041504 -3.526863 -0.2026062 -4.3673096 -0.29266357l0 -73.29874c0.8404465 -0.09005737 2.2962112 -0.18011475 4.3673096 -0.2701416c2.0710907 -0.10507202 4.9976425 -0.15759277 8.77964 -0.15759277zm-1.1030807 -11.751221c-3.8720474 0 -8.141808 0.1651001 -12.809273 0.49526978c-4.652462 0.31515503 -8.86969 0.9379883 -12.651691 1.8684692l0 92.92914c3.7820015 0.9305115 7.9992294 1.5533447 12.651691 1.8684998c4.667465 0.33016968 8.937225 0.49526978 12.809273 0.49526978c7.834137 0 15.022942 -0.99053955 21.566399 -2.9715881c6.558464 -1.9810486 12.1864395 -4.975128 16.883926 -8.982239c4.697487 -4.0221252 8.336914 -9.094818 10.918274 -15.218048c2.5813599 -6.1382446 3.8720398 -13.357056 3.8720398 -21.656464c0 -8.299377 -1.2906799 -15.510681 -3.8720398 -21.633942c-2.5813675 -6.1382446 -6.2207947 -11.210907 -10.918274 -15.218018c-4.697487 -4.0221252 -10.325462 -7.023712 -16.883926 -9.004761c-6.543457 -1.9810486 -13.732262 -2.9715881 -21.566399 -2.9715881z" fill-rule="evenodd"></path><path stroke="#434343" stroke-width="4.0" stroke-linejoin="round" stroke-linecap="butt" d="m157.5869 289.3708c-2.2962189 0 -4.2547455 0.7654114 -5.8756104 2.2962036c-1.6058502 1.5158081 -2.4087677 3.564392 -2.4087677 6.145752c0 2.5813599 0.8029175 4.637451 2.4087677 6.168274c1.6208649 1.5158081 3.5793915 2.2737122 5.8756104 2.2737122c2.3112183 0 4.26976 -0.75790405 5.8756104 -2.2737122c1.6208496 -1.5308228 2.4312897 -3.586914 2.4312897 -6.168274c0 -2.5813599 -0.81044006 -4.629944 -2.4312897 -6.145752c-1.6058502 -1.5307922 -3.564392 -2.2962036 -5.8756104 -2.2962036zm-6.348358 29.873291l0 71.92554l12.854294 0l0 -71.92554z" fill-rule="evenodd"></path><path stroke="#434343" stroke-width="4.0" stroke-linejoin="round" stroke-linecap="butt" d="m212.50314 357.8295c2.9415588 0 5.447891 0.16506958 7.518982 0.49523926c2.08609 0.31518555 3.5868835 0.7053833 4.5023804 1.1706238l0 21.431335c-1.5608368 0.3751831 -3.5193634 0.6303406 -5.8756104 0.7654114c-2.3412323 0.1350708 -5.0351562 0.2026062 -8.081772 0.2026062c-5.072693 0 -9.087311 -0.89297485 -12.043869 -2.6789246c-2.9415436 -1.8009644 -4.4123383 -5.0051575 -4.4123383 -9.612579c0 -2.4913025 0.5928192 -4.494873 1.7784424 -6.010681c1.2006378 -1.5307922 2.7014313 -2.7314453 4.5023804 -3.6018982c1.8009491 -0.8854675 3.7819977 -1.4632874 5.9431458 -1.733429c2.1761475 -0.28512573 4.232239 -0.42770386 6.1682587 -0.42770386zm-3.0391083 -40.386353c-4.5173798 0 -8.712097 0.3451538 -12.584152 1.0355225c-3.8720398 0.69036865 -6.6410065 1.4107666 -8.306885 2.1611633l1.5308075 10.648132c1.5608215 -0.6453552 3.9320831 -1.2681885 7.1137543 -1.8684998c3.1816864 -0.6003113 6.8961487 -0.9004822 11.143402 -0.9004822c3.3167572 0 6.010666 0.48776245 8.081772 1.4632874c2.0710907 0.96051025 3.706955 2.2511902 4.907593 3.8720398c1.2006378 1.605835 2.026062 3.444336 2.476303 5.5154114c0.46524048 2.071106 0.697876 4.1722107 0.697876 6.3033447l0 3.5793762c-0.36019897 -0.090026855 -1.0055237 -0.22509766 -1.9360199 -0.4052124c-0.91548157 -0.18008423 -1.9960632 -0.38269043 -3.2417145 -0.6078186c-1.2456665 -0.2401123 -2.5588684 -0.42773438 -3.9395905 -0.5628052c-1.3807373 -0.15005493 -2.716446 -0.22509766 -4.0071106 -0.22509766c-4.067154 0 -7.946701 0.42022705 -11.638657 1.2606506c-3.6769562 0.82543945 -6.903656 2.1161194 -9.680115 3.8720398c-2.7614594 1.7559509 -4.9526215 4.059662 -6.5734863 6.9111633c-1.6058502 2.8515015 -2.4087677 6.265808 -2.4087677 10.24292c0 4.1421814 0.6903534 7.691559 2.0710907 10.648132c1.3957367 2.9415588 3.3317566 5.312805 5.808075 7.1137695c2.4913177 1.8009338 5.4403687 3.1141357 8.847183 3.9395752c3.4217987 0.8404541 7.158783 1.2606506 11.210922 1.2606506c2.866516 0 5.748047 -0.12005615 8.644562 -0.36016846c2.9115448 -0.22512817 5.612976 -0.48025513 8.104294 -0.7654114c2.4913177 -0.2701416 4.7274933 -0.5628052 6.708542 -0.8779602c1.9810486 -0.33016968 3.5268707 -0.58532715 4.637451 -0.7654114l0 -44.95627c0 -4.0521545 -0.46525574 -7.759094 -1.3957367 -11.12088c-0.9154968 -3.3768005 -2.461319 -6.28833 -4.637451 -8.734619c-2.161148 -2.446289 -5.020157 -4.3372803 -8.577026 -5.673004c-3.5418854 -1.3356934 -7.8941956 -2.00354 -13.056915 -2.00354z" fill-rule="evenodd"></path><path stroke="#434343" stroke-width="4.0" stroke-linejoin="round" stroke-linecap="butt" d="m286.90875 317.73578c-6.363373 0 -11.968842 0.41271973 -16.816406 1.2381592c-4.83255 0.82543945 -8.7196045 1.6058655 -11.661163 2.3412476l0 69.85443l12.854309 0l0 -60.7146c0.36016846 -0.09005737 1.095581 -0.22512817 2.2061462 -0.4052124c1.1105957 -0.19509888 2.3337402 -0.36019897 3.669464 -0.49526978c1.3356934 -0.1350708 2.738922 -0.24761963 4.209717 -0.337677c1.4857788 -0.10507202 2.8740234 -0.15759277 4.1647034 -0.15759277c3.0316162 0 5.5379333 0.48776245 7.518982 1.4632874c1.9960632 0.96051025 3.564392 2.4613037 4.7049866 4.5023804c1.1555786 2.026062 1.9660339 4.5624084 2.4312744 7.609009c0.46524048 3.0316162 0.697876 6.671051 0.697876 10.918274l0 37.6174l12.854279 0l0 -40.386353c0 -3.1366577 -0.18759155 -6.1307373 -0.56277466 -8.982239c-0.36019897 -2.866516 -0.9079895 -5.5004272 -1.6433716 -7.901703c1.0055237 -0.9154663 2.9115295 -1.9510193 5.7180176 -3.1066284c2.8214722 -1.1556091 6.400879 -1.733429 10.738159 -1.733429c3.1366577 0 5.695526 0.48776245 7.6765747 1.4632874c1.9810486 0.96051025 3.5493774 2.4613037 4.7049866 4.5023804c1.1556091 2.026062 1.9360352 4.5624084 2.3412476 7.609009c0.42022705 3.0316162 0.63031006 6.671051 0.63031006 10.918274l0 37.6174l12.854309 0l0 -40.386353c0 -4.8025513 -0.34518433 -9.229889 -1.035553 -13.282013c-0.69036865 -4.0521545 -2.026062 -7.549011 -4.0071106 -10.49057c-1.9810486 -2.956543 -4.7275085 -5.2377625 -8.239349 -6.8435974c-3.4968567 -1.6208801 -8.014252 -2.431305 -13.552185 -2.431305c-2.8515015 0 -5.5229187 0.3001709 -8.014221 0.9004822c-2.491333 0.58529663 -4.7500305 1.2756653 -6.7760925 2.071106c-2.026062 0.7803955 -3.736969 1.5833435 -5.132721 2.4087524c-1.3807068 0.82543945 -2.3937378 1.4707947 -3.039093 1.9360352c-2.1161194 -2.4012756 -4.742523 -4.217224 -7.879181 -5.447876c-3.1366272 -1.2456665 -7.0086975 -1.8684998 -11.616119 -1.8684998z" fill-rule="evenodd"></path><path stroke="#434343" stroke-width="4.0" stroke-linejoin="round" stroke-linecap="butt" d="m407.23444 328.78912c6.2733154 0 11.233459 2.3787537 14.880371 7.1362915c3.6469421 4.7424927 5.470398 11.173401 5.470398 19.292694c0 8.104279 -1.8234558 14.535187 -5.470398 19.292694c-3.6469116 4.7424927 -8.607056 7.1137695 -14.880371 7.1137695c-6.258301 0 -11.210907 -2.3712769 -14.857849 -7.1137695c-3.6469421 -4.7575073 -5.470398 -11.188416 -5.470398 -19.292694c0 -8.119293 1.8234558 -14.550201 5.470398 -19.292694c3.6469421 -4.757538 8.599548 -7.1362915 14.857849 -7.1362915zm0 -11.345978c-4.877594 0 -9.394989 0.90045166 -13.552155 2.701416c-4.1421814 1.8009644 -7.714081 4.3598022 -10.715668 7.676544c-2.9866028 3.3167725 -5.312805 7.3088684 -6.9786987 11.976349c-1.665863 4.652466 -2.4988098 9.792664 -2.4988098 15.420654c0 5.703003 0.8329468 10.865753 2.4988098 15.48819c1.6658936 4.607422 3.992096 8.569519 6.9786987 11.8862915c3.001587 3.316742 6.5734863 5.87558 10.715668 7.676544c4.157196 1.8009644 8.674591 2.701416 13.552155 2.701416c4.8926086 0 9.409973 -0.90045166 13.552185 -2.701416c4.1571655 -1.8009644 7.7290344 -4.3598022 10.715668 -7.676544c3.001587 -3.3167725 5.3352966 -7.2788696 7.00119 -11.8862915c1.665863 -4.622467 2.4988098 -9.785187 2.4988098 -15.48819c0 -5.6279907 -0.8329468 -10.768188 -2.4988098 -15.420654c-1.6658936 -4.6674805 -3.9996033 -8.659576 -7.00119 -11.976349c-2.9865723 -3.316742 -6.558441 -5.87558 -10.715668 -7.676544c-4.142212 -1.8009644 -8.659576 -2.701416 -13.552185 -2.701416z" fill-rule="evenodd"></path><path stroke="#434343" stroke-width="4.0" stroke-linejoin="round" stroke-linecap="butt" d="m487.73605 317.73578c-6.363373 0 -11.991333 0.41271973 -16.883942 1.2381592c-4.8775635 0.82543945 -8.787109 1.6058655 -11.728699 2.3412476l0 69.85443l12.854279 0l0 -60.7146c0.46524048 -0.09005737 1.2231445 -0.22512817 2.2737122 -0.4052124c1.0655823 -0.19509888 2.2662354 -0.36019897 3.6018982 -0.49526978c1.3357239 -0.1350708 2.7389832 -0.24761963 4.2097473 -0.337677c1.4857788 -0.10507202 2.9190063 -0.15759277 4.299774 -0.15759277c3.4067993 0 6.258301 0.44274902 8.554504 1.3282166c2.3112183 0.8704529 4.157196 2.2736816 5.5379333 4.209717c1.395752 1.9360352 2.3937683 4.4723816 2.9940796 7.6090393c0.6003113 3.1366577 0.9004822 6.91864 0.9004822 11.345978l0 37.6174l12.854279 0l0 -40.386353c0 -4.892578 -0.46520996 -9.36496 -1.3956909 -13.417084c-0.91552734 -4.0521545 -2.5063477 -7.5264893 -4.7725525 -10.423035c-2.2511902 -2.9115295 -5.2677917 -5.170227 -9.049774 -6.776062c-3.782013 -1.6208801 -8.532013 -2.431305 -14.2500305 -2.431305z" fill-rule="evenodd"></path><path stroke="#434343" stroke-width="4.0" stroke-linejoin="round" stroke-linecap="butt" d="m568.5235 328.9242c3.4968262 0 6.7160645 0.6003418 9.657593 1.8009644c2.956543 1.2006226 5.2227783 2.446289 6.798584 3.736969l0 45.49655c-1.2907104 0.37521362 -3.1141357 0.72787476 -5.470398 1.058075c-2.3412476 0.31515503 -5.267761 0.4727478 -8.779663 0.4727478c-6.91864 0 -12.456604 -2.2812195 -16.61377 -6.843628c-4.142151 -4.5624084 -6.213257 -11.03833 -6.213257 -19.427765c0 -3.6919556 0.36767578 -7.1512756 1.1030884 -10.377991c0.7503662 -3.226715 1.9510498 -6.0181885 3.6018677 -8.37442c1.6658936 -2.3562622 3.8120728 -4.20224 6.4384155 -5.5379333c2.6264038 -1.3356934 5.7855835 -2.0035706 9.477539 -2.0035706zm29.310486 -45.09134l-12.854309 2.2286987l0 36.35672c-1.5758057 -1.0055542 -3.9545898 -2.0635986 -7.1362915 -3.1741943c-3.166626 -1.1105957 -6.8285522 -1.665863 -10.985779 -1.665863c-5.162781 0 -9.755188 0.92297363 -13.777283 2.7689514c-4.007141 1.8459778 -7.3914185 4.434845 -10.152893 7.7666016c-2.7614136 3.316742 -4.862549 7.278839 -6.3033447 11.8862915c-1.4257202 4.607422 -2.1386108 9.680115 -2.1386108 15.218048c0 5.808075 0.85546875 11.03833 2.5663452 15.690796c1.7109375 4.652466 4.1271973 8.592041 7.2488403 11.818756c3.1366577 3.2266846 6.918701 5.7180176 11.346008 7.473938c4.427307 1.7559204 9.409973 2.6338806 14.947876 2.6338806c5.98822 0 11.286011 -0.42019653 15.893433 -1.2606506c4.6224365 -0.82543945 8.40448 -1.6508789 11.346008 -2.4763184l0 -105.265656z" fill-rule="evenodd"></path><path stroke="#434343" stroke-width="4.0" stroke-linejoin="round" stroke-linecap="butt" d="m644.728 295.31393c3.2266846 18.444733 6.708557 35.50876 10.445496 51.192078c3.7369995 15.668274 8.044312 30.556152 12.921875 44.663605l13.417053 0c3.9771118 -9.965271 7.9467163 -20.200684 11.908813 -30.706238c3.9620972 -10.505554 7.8791504 -21.94159 11.751221 -34.308136c3.8720703 12.366547 7.7440796 23.802582 11.61615 34.308136c3.8720093 10.505554 7.8341064 20.740967 11.8862915 30.706238l13.417053 0c4.8025513 -14.107452 9.072327 -28.99533 12.809265 -44.663605c3.7369995 -15.683319 7.263855 -32.747345 10.580627 -51.192078l-13.709778 0c-1.2906494 7.1888123 -2.6264038 14.407623 -4.00708 21.656433c-1.3807373 7.2338257 -2.7839966 14.242554 -4.209717 21.026123c-1.4257812 6.768585 -2.8815308 13.244507 -4.3673096 19.427765c-1.4708252 6.1832886 -2.9415894 11.856293 -4.4123535 17.019012c-3.6919556 -9.695129 -7.66156 -20.328247 -11.908813 -31.899353c-4.232239 -11.571136 -8.149292 -23.53244 -11.751221 -35.883972l-11.61615 0c-3.6018677 12.351532 -7.4814453 24.312836 -11.638611 35.883972c-4.142212 11.571106 -8.051758 22.204224 -11.728699 31.899353c-1.5758667 -5.2677917 -3.099121 -10.985809 -4.5699463 -17.154083c-1.4707642 -6.183258 -2.9490356 -12.65918 -4.4348145 -19.427765c-1.4708252 -6.7835693 -2.8966064 -13.769775 -4.2772827 -20.958588c-1.3807373 -7.2037964 -2.7164307 -14.400085 -4.007141 -21.588898z" fill-rule="evenodd"></path><path stroke="#434343" stroke-width="4.0" stroke-linejoin="round" stroke-linecap="butt" d="m809.03723 328.3839c5.2678223 0 9.3949585 1.8684998 12.381592 5.6054688c3.0015259 3.7219543 4.4573364 8.4869995 4.3673096 14.295044l-35.681396 0c0.2701416 -2.4913025 0.84039307 -4.930084 1.7109375 -7.316345c0.885437 -2.4012756 2.1085205 -4.5249023 3.6694336 -6.37088c1.5758057 -1.8459778 3.4893188 -3.339264 5.7405396 -4.4798584c2.2661743 -1.1556091 4.870117 -1.733429 7.8115845 -1.733429zm0.1350708 -10.940765c-4.142151 0 -8.194336 0.78790283 -12.156433 2.363739c-3.9620972 1.5608215 -7.4664307 3.909546 -10.513062 7.046234c-3.0465698 3.1366577 -5.492859 7.08374 -7.338806 11.841248c-1.8459473 4.742523 -2.768982 10.295441 -2.768982 16.658813c0 5.4328613 0.7128906 10.430511 2.1386719 14.99292c1.4406738 4.5624084 3.631836 8.509491 6.5734253 11.841278c2.956543 3.316742 6.7160034 5.920624 11.278442 7.811615c4.562439 1.8909912 9.980347 2.8364868 16.253601 2.8364868c4.982605 0 9.432495 -0.46524048 13.349548 -1.3957214c3.9170532 -0.9154968 6.663513 -1.7859497 8.23938 -2.6113892l-1.8009644 -10.805695c-1.5758667 0.7353821 -3.909607 1.5007629 -7.0012207 2.2962036c-3.0766602 0.7803955 -6.873657 1.1706238 -11.390991 1.1706238c-8.029297 0 -13.9348755 -1.9360352 -17.716858 -5.808075c-3.7820435 -3.8720398 -5.9506226 -9.545044 -6.5059814 -17.019012l49.256042 0c0.09008789 -0.7353821 0.1350708 -1.5382996 0.1350708 -2.4087524c0 -0.8854675 0 -1.6058655 0 -2.1611633c0 -12.351532 -2.5813599 -21.543884 -7.7440796 -27.577057c-5.1627197 -6.048218 -12.591614 -9.072296 -22.286804 -9.072296z" fill-rule="evenodd"></path><path stroke="#434343" stroke-width="4.0" stroke-linejoin="round" stroke-linecap="butt" d="m887.0522 328.9242c3.6919556 0 6.851074 0.6678772 9.477478 2.0035706c2.6264038 1.3356934 4.7650757 3.1816711 6.4158936 5.5379333c1.6658936 2.3562317 2.866516 5.147705 3.6019287 8.37442c0.7503662 3.226715 1.1255493 6.686035 1.1255493 10.377991c0 8.389435 -2.0785522 14.865356 -6.235779 19.427765c-4.142151 4.5624084 -9.672607 6.843628 -16.591248 6.843628c-3.5118408 0 -6.445923 -0.15759277 -8.802185 -0.4727478c-2.3412476 -0.33016968 -4.1572266 -0.6828613 -5.447876 -1.058075l0 -45.49655c1.560791 -1.2906799 3.819458 -2.5363464 6.776123 -3.736969c2.956482 -1.2006226 6.1831665 -1.8009644 9.680115 -1.8009644zm-16.456238 -45.09134l-12.854309 2.2286987l0 103.03696c2.9415894 0.82543945 6.7161255 1.6508789 11.323486 2.4763184c4.6224365 0.8404541 9.927795 1.2606506 15.915955 1.2606506c5.537903 0 10.513062 -0.8779602 14.925354 -2.6338806c4.427368 -1.7559204 8.209412 -4.2472534 11.346008 -7.473938c3.1366577 -3.226715 5.5529175 -7.1662903 7.2488403 -11.818756c1.7109375 -4.652466 2.5663452 -9.882721 2.5663452 -15.690796c0 -5.5379333 -0.7128906 -10.610626 -2.1386108 -15.218048c-1.4257202 -4.6074524 -3.5267944 -8.56955 -6.3033447 -11.8862915c-2.7614746 -3.3317566 -6.145752 -5.920624 -10.152832 -7.7666016c-4.007141 -1.8459778 -8.592102 -2.7689514 -13.754822 -2.7689514c-4.1572266 0 -7.82666 0.55526733 -11.008301 1.665863c-3.1816406 1.1105957 -5.5528564 2.1686401 -7.1137695 3.1741943l0 -38.58542z" fill-rule="evenodd"></path></g></svg>

