<?xml version="1.0" standalone="yes"?>

<svg version="1.1" viewBox="0.0 0.0 960.0 720.0" fill="none" stroke="none" stroke-linecap="square" stroke-miterlimit="10" xmlns="http://www.w3.org/2000/svg" xmlns:xlink="http://www.w3.org/1999/xlink"><clipPath id="p.0"><path d="m0 0l960.0 0l0 720.0l-960.0 0l0 -720.0z" clip-rule="nonzero"></path></clipPath><g clip-path="url(#p.0)"><path fill="#000000" fill-opacity="0.0" d="m0 0l960.0 0l0 720.0l-960.0 0z" fill-rule="evenodd"></path><path fill="#cfe2f3" d="m184.45625 243.54912l100.998184 -134.66275l197.43533 148.07812l197.4353 -148.07812l100.99823 134.66275l-158.16028 118.621475l158.16028 118.62149l-100.99823 134.66275l-197.4353 -148.07812l-197.43533 148.07812l-100.998184 -134.66275l158.16023 -118.62149z" fill-rule="evenodd"></path><path stroke="#000000" stroke-width="1.0" stroke-linejoin="round" stroke-linecap="butt" d="m184.45625 243.54912l100.998184 -134.66275l197.43533 148.07812l197.4353 -148.07812l100.99823 134.66275l-158.16028 118.621475l158.16028 118.62149l-100.99823 134.66275l-197.4353 -148.07812l-197.43533 148.07812l-100.998184 -134.66275l158.16023 -118.62149z" fill-rule="evenodd"></path></g></svg>

